<?xml version="1.0" standalone="no"?>
<!DOCTYPE svg PUBLIC "-//W3C//DTD SVG 20010904//EN"
 "http://www.w3.org/TR/2001/REC-SVG-20010904/DTD/svg10.dtd">
<svg version="1.0" xmlns="http://www.w3.org/2000/svg"
 width="900.000000pt" height="512.000000pt" viewBox="0 0 900.000000 512.000000"
 preserveAspectRatio="xMidYMid meet">

<g transform="translate(0.000000,512.000000) scale(0.100000,-0.100000)"
fill="#000000" stroke="none">
<path d="M2480 5104 c-185 -40 -348 -188 -412 -372 -18 -54 -23 -88 -23 -177
0 -128 22 -206 84 -302 160 -246 469 -331 733 -201 76 38 200 158 241 235 35
66 67 190 67 262 -1 154 -58 289 -170 401 -143 144 -323 197 -520 154z m205
-407 c47 -26 85 -92 85 -147 0 -49 -38 -110 -85 -138 -81 -47 -196 -9 -232 77
-61 144 96 285 232 208z"/>
<path d="M4049 4307 c-49 -26 -84 -71 -99 -128 -7 -24 -9 -713 -8 -2036 3
-1840 4 -2000 20 -2028 35 -64 113 -115 175 -115 80 0 153 45 184 115 18 38
19 89 19 953 l0 912 758 0 759 0 44 23 c24 13 58 43 74 66 26 37 30 51 30 110
0 88 -30 137 -106 175 l-53 26 -753 0 -753 0 0 775 0 775 1205 0 c846 0 1220
3 1257 11 43 9 62 20 99 58 46 47 59 81 59 145 0 39 -30 105 -61 133 -61 56
17 53 -1452 53 l-1354 0 -44 -23z"/>
</g>
</svg>
