<?xml version="1.0" standalone="no"?>
<!DOCTYPE svg PUBLIC "-//W3C//DTD SVG 20010904//EN"
 "http://www.w3.org/TR/2001/REC-SVG-20010904/DTD/svg10.dtd">
<svg version="1.0" xmlns="http://www.w3.org/2000/svg"
 width="900.000000pt" height="512.000000pt" viewBox="0 0 900.000000 512.000000"
 preserveAspectRatio="xMidYMid meet">

<g transform="translate(0.000000,512.000000) scale(0.100000,-0.100000)"
fill="#000000" stroke="none">
<path d="M2708 4655 c-409 -78 -709 -397 -759 -806 -57 -474 263 -917 735
-1014 102 -20 271 -20 372 1 300 61 559 279 673 564 98 247 80 550 -45 779
-124 228 -342 398 -589 461 -107 28 -285 34 -387 15z m310 -477 c71 -22 163
-86 209 -144 132 -168 136 -403 10 -569 -193 -254 -577 -243 -751 20 -54 80
-77 155 -78 250 -1 137 45 246 142 339 129 123 293 160 468 104z"/>
<path d="M5775 4400 c-363 -50 -659 -156 -925 -330 -548 -360 -840 -948 -840
-1691 0 -545 171 -1017 489 -1352 292 -307 670 -487 1161 -553 176 -24 587
-24 765 -1 234 32 519 101 566 139 15 12 11 42 -46 348 -35 184 -64 336 -64
337 -1 1 -33 -9 -72 -22 -86 -29 -278 -69 -412 -86 -142 -17 -456 -6 -572 19
-350 78 -606 269 -758 565 -192 372 -193 948 -2 1328 145 289 390 480 724 564
306 77 693 49 1014 -72 38 -14 70 -24 72 -22 2 2 40 141 85 309 44 168 85 320
90 338 l9 34 -62 28 c-126 57 -367 109 -597 130 -176 15 -474 10 -625 -10z"/>
</g>
</svg>
